<?xml version="1.0" encoding="UTF-8"?>
<svg id="Layer_1" data-name="Layer 1" xmlns="http://www.w3.org/2000/svg" xmlns:xlink="http://www.w3.org/1999/xlink" viewBox="0 0 1080 1080">
  <defs>
    <style>
      .cls-1 {
        fill: url(#linear-gradient-2);
      }

      .cls-2 {
        fill: url(#linear-gradient);
      }
    </style>
    <linearGradient id="linear-gradient" x1="140" y1="398.76" x2="940" y2="398.76" gradientUnits="userSpaceOnUse">
      <stop offset="0" stop-color="#6667ab"/>
      <stop offset="1" stop-color="#ffafff"/>
    </linearGradient>
    <linearGradient id="linear-gradient-2" x1="142.41" y1="796.19" x2="934.73" y2="796.19" xlink:href="#linear-gradient"/>
  </defs>
  <path class="cls-2" d="M851.35,683.74c-13.92-6.43-41.76-259.46-107.47-282.41,18.84,24.65,83.79,282.41,49.77,282.41h-125.9c-4.06,0-24.46-37.88-31.13-42.14-52.24-33.32-47.37,118.64-76.34,136.27-16-108.58-9.56-235.16-32.4-341.7-4.48-20.91,1.4-37.76-22.9-40.52-27.33-3.1-51.52,264.4-61.26,289.61-9.62,23.45-23.14-6.76-27.76-6.76H148.44c-38.17,0,64.96-229.77,75.2-249.28C251.25,376.59,510.3,19.64,541.86,19.65c24.05,0,254.02,305.37,279.61,348.7,12.43,21.05,157.23,315.38,108.57,315.38-13.33,0-73.33,2.47-78.68,0Z"/>
  <path class="cls-1" d="M932.66,709.89c12.94,11.94-38.63,131.69-49.74,151.77-148.15,267.73-551.91,263.25-694.37-3.49-11.37-21.29-57.8-128.83-43.4-146.01,9.99-11.92,230.11-9.09,255.07-2.26,18.31,5.01,23.67,43.81,41.3,41.49,35.63-4.69,40.22-191.88,58.44-219.35,25.18,40.98,31.13,334.37,49.4,348.19,55.56,42.04,57.03-185.94,68.6-196.45,5.46-4.97,32.91,27.66,50.11,30.98,26.27,5.07,121.19-17.66,131.27-5.04,5.19,6.5-31.6,132.31-34.51,151.8,54.89-1.33,69.9-151.63,78.66-151.63,13.1,0,85.9-3.02,89.18,0Z"/>
</svg>